<?xml version="1.0" encoding="utf-8"?>
<!-- Generator: Adobe Illustrator 18.1.0, SVG Export Plug-In . SVG Version: 6.00 Build 0)  -->
<svg version="1.1" id="Layer_1" xmlns="http://www.w3.org/2000/svg" xmlns:xlink="http://www.w3.org/1999/xlink" x="0px" y="0px"
	 viewBox="0 0 1500 1500" enable-background="new 0 0 1500 1500" xml:space="preserve">
<g>
	<linearGradient id="SVGID_1_" gradientUnits="userSpaceOnUse" x1="261.183" y1="1060.9612" x2="1290.6602" y2="1060.9612">
		<stop  offset="0.4944" style="stop-color:#FFFFFE"/>
		<stop  offset="0.5" style="stop-color:#D9DEE3"/>
	</linearGradient>
	<path fill="url(#SVGID_1_)" d="M796,1068.1v292.8c255-161,416.3-360.9,455-599.9h-154.7C1086.2,925,960,1058.1,796,1068.1z"/>
	<linearGradient id="SVGID_2_" gradientUnits="userSpaceOnUse" x1="257.3695" y1="448.2538" x2="1286.7516" y2="448.2538">
		<stop  offset="0.4944" style="stop-color:#FFFFFE"/>
		<stop  offset="0.5" style="stop-color:#D9DEE3"/>
	</linearGradient>
	<path fill="url(#SVGID_2_)" d="M752,421.1V165.5C706,213.9,601.2,312,601.2,312h-12.5c0,0-256.6,0-300.6,0c0,60,0,337.6,0,337.6
		c0,25.2-1.7,50.4,1,81.4h160.3C459.3,566,587,431.2,752,421.1z"/>
	<linearGradient id="SVGID_3_" gradientUnits="userSpaceOnUse" x1="254.6789" y1="1060.9576" x2="1289.6603" y2="1060.9576">
		<stop  offset="0.4944" style="stop-color:#FFFFFE"/>
		<stop  offset="0.5" style="stop-color:#D9DEE3"/>
	</linearGradient>
	<path fill="url(#SVGID_3_)" d="M449.3,761H294.6c38.7,239,187.4,439,457.4,599.9v-292.8C587,1058.1,459.3,925,449.3,761z"/>
	<linearGradient id="SVGID_4_" gradientUnits="userSpaceOnUse" x1="261.8145" y1="448.2629" x2="1290.076" y2="448.2629">
		<stop  offset="0.4944" style="stop-color:#FFFFFE"/>
		<stop  offset="0.5" style="stop-color:#D9DEE3"/>
	</linearGradient>
	<path fill="url(#SVGID_4_)" d="M796,165.5v255.6C960,431.2,1086.2,566,1096.3,731h160.3c2.6-31,3.4-56.2,3.4-81.4
		c0,0,0-277.6,0-337.6c-44,0-315.6,0-315.6,0S842,213.9,796,165.5z"/>
	<path fill="#FFFFFE" enable-background="new    " d="M772.8,486.4c-142.4,0-258.3,115.9-258.3,258.3
		c0,142.4,115.9,258.3,258.3,258.3c142.4,0,258.3-115.9,258.3-258.3C1031.1,602.2,915.2,486.4,772.8,486.4z M772.8,871.1
		c-69.8,0-126.4-56.6-126.4-126.4c0-69.8,56.6-126.4,126.4-126.4c69.8,0,126.4,56.6,126.4,126.4
		C899.2,814.4,842.6,871.1,772.8,871.1z"/>
	<path fill="#909197" d="M796,421.1V165.5c-15-8.8-17.8-16-22-20.2c-4.2,4.2-7,11.4-22,20.2v255.6C587,431.2,459.3,566,449.3,731
		H289c1.4,0,3.3,14,5.6,30h154.7C459.3,925,587,1058.1,752,1068.1v292.8c0,3.4,11.4,6.9,17.1,10.2c0,0,2.4,1.3,3.6,2
		c1.9-1.1,5-2,5-2c5.7-3.4,3.4-6.8,18.4-10.2v-292.8c164-10.1,290.2-143.1,300.3-307.1H1251c2.2-16,4.1-30,5.6-30h-160.3
		C1086.2,566,960,431.2,796,421.1z M772.8,1002.9c-142.4,0-258.3-115.9-258.3-258.3c0-142.4,115.9-258.3,258.3-258.3
		c142.4,0,258.3,115.9,258.3,258.3C1031.1,887,915.2,1002.9,772.8,1002.9z"/>
	<path fill="#00A9DE" d="M772.8,618.2c-69.8,0-126.4,56.6-126.4,126.4c0,69.8,56.6,126.4,126.4,126.4c69.8,0,126.4-56.6,126.4-126.4
		C899.2,674.8,842.6,618.2,772.8,618.2z"/>
	<path fill="#B8B8BC" d="M969.5,251c-16-14-196.7-194-196.7-194L751.4,77c0,0-159.3,160-175.3,174c-23.3,0-348.1,0-348.1,0v398.6
		c0,306.1,175.9,573.6,512.2,773.6l18.3,11.2l14.7,8.8l19.2-11.2l14.2-8.7c336.3-200,513.3-467.5,513.3-773.6V251
		C1320,251,992.7,251,969.5,251z M1260,649.6c0,25.2-1.1,50.1-3.7,74.8c-1.4,13.6-3.2,27-5.4,40.4
		c-38.7,231-194.9,435.1-457.9,596.1c-5.6,3.4-11.1,6.9-16.8,10.2c0,0-1.5,0.9-3.4,2c-1.2-0.7-3.4-2-3.4-2
		c-5.7-3.4-11.2-6.8-16.8-10.2c-263-161-419.3-365-458-596.1c-2.2-13.4-2.6-26.8-4.1-40.4c-2.6-24.7-2.5-49.6-2.5-74.8
		c0,0,0-277.6,0-337.6c44,0,300.6,0,300.6,0h12.5c0,0,103-100.6,151.4-149c8.8-8.8,16-14.7,20.2-19c4.2,4.2,11.4,9.6,20.2,18.4
		C841.4,210.8,944.4,312,944.4,312s271.6,0,315.6,0C1260,372,1260,649.6,1260,649.6z"/>
</g>
</svg>
